<svg xmlns="http://www.w3.org/2000/svg" width="512" height="512" viewBox="0 0 512 512" version="1.1">
	<path d="M 259.500 78.015 C 252.204 78.594, 237.551 81.290, 224.500 84.456 C 223.400 84.723, 219.350 85.687, 215.500 86.599 C 199.786 90.320, 191.174 98.620, 192.419 108.844 C 194.360 124.784, 194.370 123.748, 192.260 124.418 C 188.490 125.614, 177.358 138.337, 173.796 145.520 C 166.145 160.950, 162.300 174.600, 161.406 189.503 C 160.531 204.103, 162.185 216.711, 165.931 224 C 170.207 232.319, 172.757 243.886, 173.328 257.550 C 173.640 265.027, 174.401 270.909, 175.334 273.050 C 176.271 275.202, 176.868 275.815, 176.918 274.679 C 176.993 273.023, 177.143 273, 178.571 274.429 C 179.436 275.293, 180.547 276, 181.041 276 C 181.534 276, 181.770 278.135, 181.565 280.744 C 181.359 283.353, 181.636 286.319, 182.179 287.335 C 183.533 289.864, 184.003 295.880, 182.901 296.561 C 181.646 297.337, 181.773 300.742, 183.087 301.554 C 185.345 302.949, 185.613 300.160, 184.293 289 C 182.586 274.578, 181.383 259.950, 181.863 259.470 C 182.064 259.269, 183.415 261.441, 184.864 264.296 C 188.393 271.246, 193.318 274.484, 204.500 277.202 C 209.450 278.406, 213.725 279.647, 214 279.962 C 214.275 280.276, 216.683 281.099, 219.351 281.790 C 225.476 283.376, 233.390 290.643, 230.659 292.171 C 228.799 293.212, 228.428 295, 230.071 295 C 231.420 295, 234.075 292.408, 233.409 291.743 C 233.137 291.470, 233.594 290.986, 234.425 290.667 C 235.256 290.348, 236.192 290.501, 236.504 291.006 C 237.240 292.198, 232.371 299.920, 230.408 300.674 C 229.580 300.992, 227.515 304.008, 225.821 307.376 C 224.126 310.744, 221.438 314.989, 219.848 316.810 C 218.257 318.630, 217.220 320.547, 217.543 321.069 C 218.357 322.387, 217.092 326, 215.816 326 C 215.239 326, 215.010 325.071, 215.307 323.935 C 215.823 321.960, 215.740 321.940, 213.395 323.477 C 210.745 325.213, 208.773 324.755, 209.602 322.596 C 210.246 320.915, 205.542 319.858, 204.051 321.349 C 203.316 322.084, 203 322.021, 203 321.141 C 203 320.449, 202.588 320.136, 202.085 320.447 C 201.582 320.758, 200.942 320.447, 200.662 319.756 C 200.276 318.806, 199.894 318.865, 199.091 320 C 198.187 321.279, 198.028 321.224, 198.015 319.628 C 198.002 318.054, 197.754 317.959, 196.458 319.035 C 195.541 319.796, 194.565 319.947, 194.052 319.408 C 192.456 317.730, 189 310.953, 189 309.501 C 189 308.628, 188.405 308.291, 187.487 308.643 C 186.655 308.963, 185.305 308.668, 184.487 307.989 C 183.540 307.203, 183 307.142, 183 307.821 C 183 308.407, 184 309.587, 185.223 310.443 C 186.445 311.299, 187.114 312, 186.710 312 C 186.306 312, 187.040 313.688, 188.342 315.750 C 189.644 317.813, 190.738 319.725, 190.773 320 C 191.103 322.600, 192.553 326.872, 193.649 328.473 C 194.392 329.557, 195 331.086, 195 331.869 C 195 332.652, 196.912 335.393, 199.250 337.961 C 205.067 344.350, 210.251 350.828, 211.746 353.574 C 212.431 354.833, 213.894 356.149, 214.996 356.499 C 216.098 356.849, 217 357.779, 217 358.567 C 217 359.355, 217.689 360, 218.531 360 C 219.374 360, 220.322 360.675, 220.638 361.500 C 220.955 362.325, 221.765 363, 222.439 363 C 223.113 363, 224.148 364.575, 224.739 366.500 C 225.406 368.675, 225.447 370, 224.847 370 C 224.316 370, 224.163 370.454, 224.506 371.009 C 225.361 372.393, 224.068 376.160, 222.970 375.482 C 222.483 375.181, 222.738 376.186, 223.536 377.717 C 224.334 379.248, 224.990 381.063, 224.994 381.750 C 224.997 382.438, 225.477 383, 226.059 383 C 226.641 383, 226.828 383.470, 226.473 384.044 C 226.118 384.618, 226.306 385.664, 226.890 386.368 C 227.475 387.072, 227.771 388.592, 227.549 389.745 C 227.322 390.925, 227.753 392.075, 228.534 392.375 C 229.508 392.748, 229.780 394.042, 229.446 396.704 C 228.649 403.043, 229 408.334, 230.304 409.638 C 230.687 410.020, 231 410.976, 231 411.762 C 231 412.548, 231.833 414.386, 232.852 415.846 C 234.641 418.412, 236.494 425, 235.425 425 C 233.262 425, 225.164 419.606, 216 412.060 C 212.975 409.570, 211.175 408.390, 212 409.439 C 215.532 413.931, 228.282 422.882, 238.005 427.696 C 243.777 430.554, 253.450 434.313, 259.500 436.049 C 269.099 438.803, 272.520 439.273, 286.358 439.738 C 303.740 440.321, 310.173 439.440, 318.233 435.372 C 323.307 432.811, 323.232 432.965, 325.013 421.500 C 328.162 401.225, 328.270 399.550, 327.119 389 C 326.489 383.225, 324.921 374.225, 323.635 369 C 321.177 359.015, 321.166 352, 323.609 352 C 324.374 352, 325 351.335, 325 350.523 C 325 349.711, 326.125 348.309, 327.500 347.408 C 328.956 346.454, 330 344.818, 330 343.492 C 330 342.239, 330.675 340.955, 331.500 340.638 C 332.325 340.322, 333 339.541, 333 338.903 C 333 338.264, 334.528 336.051, 336.397 333.983 C 338.392 331.774, 340.460 327.929, 341.410 324.662 C 342.299 321.604, 343.428 318.853, 343.919 318.550 C 344.411 318.246, 345.130 315.636, 345.518 312.749 C 345.906 309.862, 346.565 307.050, 346.982 306.500 C 347.398 305.950, 348.268 302.350, 348.913 298.500 C 353.132 273.344, 355.030 265.685, 357.639 263.278 C 358.964 262.055, 360.909 259.046, 361.962 256.590 C 363.014 254.134, 364.804 251.196, 365.938 250.062 C 367.072 248.928, 368 247.523, 368 246.941 C 368 246.359, 368.450 246.160, 369 246.500 C 369.550 246.840, 370 246.458, 370 245.652 C 370 244.845, 371.804 240.718, 374.010 236.481 C 379.289 226.339, 379.121 226.578, 379.984 227.974 C 381.024 229.657, 382.168 221.578, 381.516 217.154 C 381.087 214.236, 381.185 213.903, 382.003 215.500 C 382.761 216.978, 382.862 216.066, 382.392 212 C 382.041 208.975, 381.613 204.925, 381.440 203 C 381.267 201.075, 380.812 197.974, 380.429 196.108 C 379.900 193.535, 380.031 192.901, 380.973 193.483 C 382.434 194.386, 381.655 191.283, 379.219 186.500 C 377.838 183.789, 377.841 183.624, 379.247 184.791 C 380.642 185.948, 380.762 185.064, 380.404 176.291 C 379.844 162.587, 379.919 160.803, 381.112 159.366 C 381.690 158.669, 382.186 155.600, 382.213 152.547 C 382.265 146.733, 380.204 142.397, 374.125 135.538 C 372.681 133.909, 372.298 133.186, 373.274 133.931 C 377.219 136.942, 375.987 133.726, 371.488 129.268 C 368.842 126.645, 366.079 123.375, 365.348 122 C 364.130 119.710, 364.206 119.454, 366.254 118.956 C 367.484 118.657, 368.644 117.611, 368.832 116.632 C 369.243 114.502, 367.185 112.052, 360.548 106.766 C 357.824 104.597, 355.124 101.879, 354.548 100.726 C 353.884 99.397, 351.769 98.187, 348.775 97.424 C 346.176 96.762, 342.654 95.046, 340.948 93.610 C 339.242 92.175, 337.392 91, 336.837 91 C 336.282 91, 333.478 88.555, 330.608 85.568 C 327.737 82.580, 324.288 79.921, 322.944 79.658 C 311.396 77.401, 278.109 76.539, 259.500 78.015 M 208.984 129.284 C 203.716 130.209, 203.369 130.462, 201.292 134.877 C 200.095 137.419, 198.390 142.875, 197.503 147 C 196.615 151.125, 195.481 156.300, 194.983 158.500 C 193.436 165.333, 193.087 168.167, 192.458 179 C 192.123 184.775, 191.209 193.325, 190.428 198 C 188.495 209.560, 188.522 218, 190.492 218 C 191.961 218, 196.850 213.233, 196.922 211.731 C 196.991 210.269, 200.508 207.246, 203 206.506 C 204.375 206.098, 206.230 205.124, 207.122 204.343 C 208.812 202.862, 229.882 198.829, 231.327 199.709 C 231.781 199.986, 233.581 200.379, 235.327 200.583 C 237.072 200.787, 240.412 201.236, 242.750 201.582 C 245.441 201.980, 247 201.826, 247 201.164 C 247 200.509, 247.953 200.613, 249.552 201.442 C 251.147 202.270, 253.302 202.506, 255.302 202.071 C 257.061 201.689, 259.850 201.405, 261.500 201.438 C 263.150 201.472, 264.779 201.118, 265.120 200.652 C 265.460 200.185, 266.641 200.771, 267.743 201.954 C 269.392 203.725, 269.847 203.840, 270.319 202.610 C 270.635 201.789, 271.704 201.169, 272.696 201.234 C 273.688 201.299, 276.225 201.021, 278.334 200.615 C 281.039 200.095, 282.009 199.465, 281.629 198.476 C 281.256 197.504, 282.126 196.879, 284.461 196.441 C 286.314 196.094, 288.847 194.727, 290.090 193.405 C 291.332 192.082, 292.945 191, 293.674 191 C 294.403 191, 295 190.550, 295 190 C 295 189.450, 295.788 188.986, 296.750 188.969 C 298.709 188.933, 300.972 186.109, 302.928 181.258 C 304.047 178.486, 304.001 177.522, 302.614 174.600 C 301.722 172.720, 301.268 170.466, 301.603 169.591 C 302.002 168.552, 301.669 168, 300.642 168 C 298.470 168, 296.366 164.010, 298.004 162.998 C 298.723 162.553, 298.941 161.388, 298.540 160.125 C 298.048 158.575, 298.290 158, 299.433 158 C 301.186 158, 301.538 156.450, 300 155.500 C 299.450 155.160, 299 154.089, 299 153.120 C 299 152.151, 296.974 149.244, 294.498 146.660 C 290.806 142.807, 289.514 142.049, 287.312 142.448 C 285.835 142.716, 284.042 142.449, 283.326 141.856 C 282.611 141.262, 281.350 141.035, 280.525 141.352 C 279.699 141.669, 279.131 141.434, 279.262 140.830 C 279.402 140.182, 277.625 139.637, 274.931 139.500 C 271.510 139.327, 269.038 138.338, 265.088 135.562 C 262.186 133.522, 259.568 132.099, 259.269 132.397 C 258.970 132.696, 257.338 131.952, 255.641 130.744 C 252.740 128.679, 251.422 128.541, 233.528 128.432 C 223.063 128.368, 212.018 128.751, 208.984 129.284 M 376.865 217 C 376.605 218.375, 376.708 220.625, 377.096 222 L 377.801 224.500 378.019 222 C 378.225 219.630, 378.276 219.656, 379 222.500 C 379.698 225.244, 379.770 225.287, 379.837 223 C 379.877 221.625, 379.332 219.150, 378.625 217.500 L 377.340 214.500 376.865 217 M 173.100 223.583 C 173.155 225.188, 173.582 227.625, 174.049 229 C 174.622 230.686, 174.711 229.872, 174.321 226.500 C 173.672 220.875, 172.948 219.147, 173.100 223.583 M 196 225 C 196.589 226.100, 197.280 227, 197.535 227 C 197.791 227, 198 226.100, 198 225 C 198 223.869, 197.333 223, 196.465 223 C 195.240 223, 195.146 223.404, 196 225 M 193.683 227.384 C 193.355 228.238, 193.487 229.183, 193.975 229.484 C 195.250 230.273, 196.011 228.635, 195.073 227.118 C 194.452 226.114, 194.148 226.172, 193.683 227.384 M 190.343 231.010 C 189.879 231.448, 188.620 231.964, 187.544 232.158 C 181.181 233.304, 183.803 259.605, 190.965 266.466 C 192.623 268.055, 194.224 269.110, 194.523 268.811 C 194.822 268.512, 194.751 266.295, 194.366 263.886 C 193.980 261.476, 193.477 260.069, 193.247 260.758 C 193.017 261.448, 192.423 261.761, 191.926 261.454 C 191.429 261.147, 191.741 259.798, 192.620 258.456 C 193.500 257.115, 194.620 256.265, 195.109 256.568 C 196.405 257.368, 196.202 254.602, 194.867 253.267 C 193.325 251.725, 194.523 249, 196.743 249 C 198.335 249, 198.545 248.055, 198.524 241 C 198.510 236.355, 198.081 232.998, 197.500 232.994 C 196.950 232.991, 195.304 232.364, 193.843 231.601 C 192.381 230.839, 190.806 230.573, 190.343 231.010 M 370.192 233.346 C 368.751 237.331, 368.717 238, 369.955 238 C 370.927 238, 372.592 231.259, 371.812 230.479 C 371.576 230.243, 370.847 231.533, 370.192 233.346 M 261.262 251.378 C 258.931 253.645, 255.674 257.525, 254.023 260 C 252.373 262.475, 249.667 266.254, 248.011 268.399 C 246.355 270.543, 245 273.166, 245 274.228 C 245 275.890, 245.453 276.057, 248.250 275.429 C 252.280 274.523, 252.977 274.517, 255.609 275.365 C 256.964 275.802, 258.169 275.501, 258.981 274.523 C 259.846 273.481, 259.891 273, 259.122 273 C 258.505 273, 258 272.495, 258 271.878 C 258 271.100, 258.459 271.136, 259.493 271.995 C 260.693 272.990, 261.657 272.916, 264.395 271.617 C 266.269 270.728, 268.245 270, 268.787 270 C 270.448 270, 272.867 263.662, 272.307 260.781 C 272.016 259.285, 271.153 257.542, 270.389 256.908 C 269.625 256.274, 269 255, 269 254.077 C 269 252.157, 266.752 246.955, 266 247.136 C 265.725 247.202, 263.593 249.111, 261.262 251.378 M 248.354 323.519 C 247.552 325.609, 248.833 327, 251.559 327 C 254.750 327, 254.676 324.821, 251.435 323.317 C 249.377 322.362, 248.783 322.401, 248.354 323.519 M 254.667 344.667 C 253.711 345.622, 253.845 347, 254.893 347 C 255.384 347, 256.045 346.325, 256.362 345.500 C 256.947 343.976, 255.881 343.452, 254.667 344.667 M 191.073 357.635 C 189.933 359.084, 189 360.734, 189 361.302 C 189 362.477, 188.901 362.581, 191.892 358.250 C 194.582 354.354, 193.998 353.916, 191.073 357.635 M 205 402.500 C 206.866 404.425, 208.617 406, 208.892 406 C 209.167 406, 207.866 404.425, 206 402.500 C 204.134 400.575, 202.383 399, 202.108 399 C 201.833 399, 203.134 400.575, 205 402.500 M 393.453 433.500 C 398.637 440.646, 409.098 454, 409.512 454 C 410.302 454, 394.911 433.232, 392.752 431.383 C 391.057 429.933, 391.218 430.419, 393.453 433.500 M 441.427 503.031 C 433.773 503.828, 433 504.335, 433 508.559 L 433 512 441.893 512 C 451.865 512, 453.142 511.110, 450.500 506 C 448.582 502.290, 448.571 502.287, 441.427 503.031 M 407.154 506.445 C 401.478 507.562, 399.061 508.988, 399.015 511.250 C 399.007 511.663, 404.416 512, 411.035 512 C 422.655 512, 423.034 511.933, 422.027 510.051 C 420.705 507.580, 417.017 504.970, 415.027 505.098 C 414.187 505.152, 410.644 505.758, 407.154 506.445 M 376.500 511 C 374.157 511.596, 374.923 511.786, 380 511.866 C 384.531 511.938, 386.046 511.676, 385 511 C 383.294 509.897, 380.833 509.897, 376.500 511" stroke="none" fill="black" fill-rule="evenodd"/>
</svg>