<?xml version="1.0" encoding="iso-8859-1"?>
<!-- Generator: Adobe Illustrator 19.0.0, SVG Export Plug-In . SVG Version: 6.00 Build 0)  -->
<svg version="1.1" id="Layer_1" xmlns="http://www.w3.org/2000/svg" xmlns:xlink="http://www.w3.org/1999/xlink" x="0px" y="0px"
	 viewBox="0 0 496 496" style="enable-background:new 0 0 496 496;" xml:space="preserve">
<g>
	<g>
		<g>
			<path d="M472,32h-72V0H100.688L0,100.688V496h400V192h72c13.232,0,24-10.768,24-24V56C496,42.768,485.232,32,472,32z M96,27.312
				V96H27.312L96,27.312z M384,480H16V112h96V16h272v16H184c-13.232,0-24,10.768-24,24v112c0,13.232,10.768,24,24,24h200V480z
				 M480,168c0,4.408-3.592,8-8,8H184c-4.408,0-8-3.592-8-8V56c0-4.408,3.592-8,8-8h288c4.408,0,8,3.592,8,8V168z"/>
			<rect x="32" y="128" width="16" height="16"/>
			<rect x="64" y="128" width="16" height="16"/>
			<rect x="32" y="160" width="16" height="16"/>
			<path d="M232,80c13.232,0,24,10.768,24,24h16c0-22.056-17.944-40-40-40c-22.056,0-40,17.944-40,40v16c0,22.056,17.944,40,40,40
				c22.056,0,40-17.944,40-40h-16c0,13.232-10.768,24-24,24s-24-10.768-24-24v-16C208,90.768,218.768,80,232,80z"/>
			<path d="M340,64h-24c-15.44,0-28,12.56-28,28s12.56,28,28,28h24c6.616,0,12,5.384,12,12c0,6.616-5.384,12-12,12h-24
				c-6.616,0-12-5.384-12-12v-4h-16v4c0,15.44,12.56,28,28,28h24c15.44,0,28-12.56,28-28s-12.56-28-28-28h-24
				c-6.616,0-12-5.384-12-12c0-6.616,5.384-12,12-12h24c6.616,0,12,5.384,12,12v4h16v-4C368,76.56,355.44,64,340,64z"/>
			<path d="M436,64h-24c-15.44,0-28,12.56-28,28s12.56,28,28,28h24c6.616,0,12,5.384,12,12c0,6.616-5.384,12-12,12h-24
				c-6.616,0-12-5.384-12-12v-4h-16v4c0,15.44,12.56,28,28,28h24c15.44,0,28-12.56,28-28s-12.56-28-28-28h-24
				c-6.616,0-12-5.384-12-12c0-6.616,5.384-12,12-12h24c6.616,0,12,5.384,12,12v4h16v-4C464,76.56,451.44,64,436,64z"/>
			<path d="M32,464h336V208H32V464z M48,224h304v224H48V224z"/>
			<path d="M116.096,278.76l-2.256,18.032c-0.928,7.408-4.344,14.4-9.632,19.688L84.688,336l19.52,19.52
				c5.288,5.288,8.704,12.28,9.632,19.688l2.256,18.032C118.848,415.336,137.728,432,160,432v-16
				c-14.216,0-26.272-10.632-28.032-24.744l-2.256-18.032c-1.368-10.92-6.408-21.224-14.192-29.016L107.312,336l8.216-8.208
				c7.784-7.792,12.824-18.096,14.184-29.016l2.256-18.032C133.728,266.632,145.784,256,160,256v-16
				C137.728,240,118.848,256.664,116.096,278.76z"/>
			<path d="M286.16,296.792l-2.256-18.032C281.152,256.664,262.272,240,240,240v16c14.216,0,26.272,10.632,28.032,24.744
				l2.256,18.032c1.368,10.92,6.408,21.224,14.192,29.016l8.208,8.208l-8.216,8.208c-7.784,7.792-12.824,18.096-14.184,29.016
				l-2.256,18.032C266.272,405.368,254.216,416,240,416v16c22.272,0,41.152-16.664,43.904-38.76l2.256-18.032
				c0.928-7.408,4.344-14.4,9.632-19.688l19.52-19.52l-19.52-19.52C290.504,311.184,287.088,304.192,286.16,296.792z"/>
		</g>
	</g>
</g>
<g>
</g>
<g>
</g>
<g>
</g>
<g>
</g>
<g>
</g>
<g>
</g>
<g>
</g>
<g>
</g>
<g>
</g>
<g>
</g>
<g>
</g>
<g>
</g>
<g>
</g>
<g>
</g>
<g>
</g>
</svg>
