<svg width="80" height="80" viewBox="0 0 80 80" fill="none" xmlns="http://www.w3.org/2000/svg">
<g clip-path="url(#clip0_34_78)">
<path d="M38.3584 80H41.6896C59.7728 80 68.816 80 74.432 74.384C80.048 68.768 80 59.728 80 41.6896V38.3104C80 20.2752 80 11.232 74.432 5.61602C68.864 1.58691e-05 59.7728 0 41.6896 0H38.3584C20.272 0 11.232 1.58691e-05 5.616 5.61602C-3.66211e-06 11.232 0 20.2688 0 38.3104V41.6896C0 59.728 -3.66211e-06 68.768 5.616 74.384C11.232 80 20.272 80 38.3584 80Z" fill="black"/>
<path d="M42.9283 57.6794C24.8899 57.6794 13.9427 45.1642 13.5171 24.3674H22.6531C22.9379 39.6442 29.8883 46.1274 35.2163 47.449V24.3674H43.9747V37.5482C49.1139 36.9786 54.4899 30.9818 56.3011 24.3674H64.9123C63.5331 32.505 57.6803 38.5018 53.5395 40.9754C57.6803 42.9754 64.3427 48.2106 66.9123 57.6794H57.4435C55.4435 51.3498 50.5411 46.4474 43.9747 45.7818V57.6794H42.9283Z" fill="white"/>
</g>
<defs>
<clipPath id="clip0_34_78">
<rect width="80" height="80" fill="white"/>
</clipPath>
</defs>
</svg>
